<svg id="Layer_1" data-name="Layer 1" xmlns="http://www.w3.org/2000/svg" viewBox="0 0 792.94 292.82"><defs><style>.cls-1{fill:#085384;}.cls-2{fill:#fff;}.cls-3{fill:#146fa3;}.cls-4{fill:#238ebc;}.cls-5{fill:#2fa9d3;}.cls-6{fill:#3bc4e8;}.cls-7{fill:#71cee8;}.cls-8{font-size:103.46px;fill:#231f20;font-family:18KhebratMusamimBold, "18 Khebrat Musamim";}</style></defs><path class="cls-1" d="M430.39,318.16V302A145.61,145.61,0,0,0,315,245.26c-80.64,0-146,65.55-146,146.4s65.37,146.41,146,146.41,146-65.54,146-146.41A146.86,146.86,0,0,0,457,357.75v5.82a9.46,9.46,0,0,1-9.43,9.46H420.54a9.46,9.46,0,0,1-9.43-9.46V336.42a9.46,9.46,0,0,1,9.43-9.46H446c-.14-.3-.29-.59-.44-.89h-7.26A7.91,7.91,0,0,1,430.39,318.16Zm-9.85,54.94h8a42.51,42.51,0,0,1,5.14,20.36v38.71c0,3.38-.88,5.94-2.62,7.68a8.8,8.8,0,0,1-12.53,0c-1.74-1.74-2.61-4.25-2.61-7.5V393.63a13.9,13.9,0,0,1,.09-1.57,24.41,24.41,0,0,0-7.49-16.49,24.85,24.85,0,0,0-18.28-7.6h-.35a24.85,24.85,0,0,0-18.28,7.6,24.31,24.31,0,0,0-7.48,16.49c.05.53.08,1.05.08,1.57v38.72c0,3.25-.87,5.76-2.61,7.5a8.51,8.51,0,0,1-6.26,2.62h-.16a8.52,8.52,0,0,1-6.27-2.62c-1.74-1.74-2.61-4.25-2.61-7.5V393.63a13.9,13.9,0,0,1,.09-1.57A24.36,24.36,0,0,0,339,375.57a24.85,24.85,0,0,0-18.28-7.6h-.35a24.83,24.83,0,0,0-18.27,7.6,24.32,24.32,0,0,0-7.49,16.49,13.9,13.9,0,0,1,.09,1.57v30.89a23.46,23.46,0,0,1-4.76,11,17.81,17.81,0,0,1-2.15,2.19,19,19,0,0,1-11.66,4.44l-1.34,0a20.29,20.29,0,0,1-13.25-4.41,18.79,18.79,0,0,1-1.92-1.81,22.78,22.78,0,0,1-5.29-10.89V393.63a13.9,13.9,0,0,1,.09-1.57,24.36,24.36,0,0,0-7.49-16.49,24.84,24.84,0,0,0-18.27-7.6h-.35a24.83,24.83,0,0,0-18.28,7.6,24.32,24.32,0,0,0-7.49,16.49,13.9,13.9,0,0,1,.09,1.57v38.72c0,3.25-.87,5.76-2.62,7.5a8.8,8.8,0,0,1-12.53,0q-2.61-2.61-2.61-7.68V393.46a42.08,42.08,0,0,1,12.71-30.38q11.83-11.86,30.2-12.91h1.39q18.38,1,30.21,12.91A42.08,42.08,0,0,1,272,393.46v30.93a5.58,5.58,0,0,0,2.31.51,5.42,5.42,0,0,0,2.54-.62V393.46a42.08,42.08,0,0,1,12.71-30.38q11.83-11.86,30.2-12.91h1.39q18.38,1,30.21,12.91a49,49,0,0,1,3.91,4.45,48.9,48.9,0,0,1,3.9-4.45q11.85-11.86,30.21-12.91h1.39A47.69,47.69,0,0,1,411,355.61v8A9.54,9.54,0,0,0,420.54,373.1Z" transform="translate(-168.97 -245.26)"/><path class="cls-2" d="M411,355.61a47.69,47.69,0,0,0-20.22-5.44h-1.39q-18.37,1-30.21,12.91a48.9,48.9,0,0,0-3.9,4.45,49,49,0,0,0-3.91-4.45q-11.83-11.86-30.21-12.91H319.8q-18.36,1-30.2,12.91a42.08,42.08,0,0,0-12.71,30.38v30.82a5.42,5.42,0,0,1-2.54.62,5.58,5.58,0,0,1-2.31-.51V393.46a42.08,42.08,0,0,0-12.71-30.38q-11.83-11.86-30.21-12.91h-1.39q-18.36,1-30.2,12.91a42.08,42.08,0,0,0-12.71,30.38v38.71q0,5.07,2.61,7.68a8.8,8.8,0,0,0,12.53,0c1.75-1.74,2.62-4.25,2.62-7.5V393.63a13.9,13.9,0,0,0-.09-1.57A24.32,24.32,0,0,1,210,375.57a24.83,24.83,0,0,1,18.28-7.6h.35a24.84,24.84,0,0,1,18.27,7.6,24.36,24.36,0,0,1,7.49,16.49,13.9,13.9,0,0,0-.09,1.57V425.1A22.78,22.78,0,0,0,259.57,436a18.79,18.79,0,0,0,1.92,1.81,20.29,20.29,0,0,0,13.25,4.41l1.34,0a19,19,0,0,0,11.66-4.44,17.81,17.81,0,0,0,2.15-2.19,23.46,23.46,0,0,0,4.76-11V393.63a13.9,13.9,0,0,0-.09-1.57,24.32,24.32,0,0,1,7.49-16.49,24.83,24.83,0,0,1,18.27-7.6h.35a24.85,24.85,0,0,1,18.28,7.6,24.36,24.36,0,0,1,7.49,16.49,13.9,13.9,0,0,0-.09,1.57v38.72c0,3.25.87,5.76,2.61,7.5a8.52,8.52,0,0,0,6.27,2.62h.16a8.51,8.51,0,0,0,6.26-2.62c1.74-1.74,2.61-4.25,2.61-7.5V393.63c0-.52,0-1-.08-1.57a24.31,24.31,0,0,1,7.48-16.49,24.85,24.85,0,0,1,18.28-7.6h.35a24.85,24.85,0,0,1,18.28,7.6,24.41,24.41,0,0,1,7.49,16.49,13.9,13.9,0,0,0-.09,1.57v38.72c0,3.25.87,5.76,2.61,7.5a8.8,8.8,0,0,0,12.53,0c1.74-1.74,2.62-4.3,2.62-7.68V393.46a42.51,42.51,0,0,0-5.14-20.36h-8a9.54,9.54,0,0,1-9.51-9.53Z" transform="translate(-168.97 -245.26)"/><path class="cls-3" d="M447.61,329.91H420.54a6.5,6.5,0,0,0-6.5,6.51v27.15a6.5,6.5,0,0,0,6.5,6.51h27.07a6.5,6.5,0,0,0,6.5-6.51V336.42A6.5,6.5,0,0,0,447.61,329.91Z" transform="translate(-168.97 -245.26)"/><path class="cls-4" d="M458.92,292.49H438.28a5,5,0,0,0-5,5v20.7a5,5,0,0,0,5,5h20.64a5,5,0,0,0,4.95-5v-20.7A5,5,0,0,0,458.92,292.49Z" transform="translate(-168.97 -245.26)"/><path class="cls-5" d="M485.84,286.72H472a3.33,3.33,0,0,0-3.33,3.33V304a3.34,3.34,0,0,0,3.33,3.34h13.88a3.34,3.34,0,0,0,3.33-3.34V290.05A3.34,3.34,0,0,0,485.84,286.72Z" transform="translate(-168.97 -245.26)"/><path class="cls-6" d="M459.76,273.74H451a2.12,2.12,0,0,0-2.11,2.12v8.82A2.12,2.12,0,0,0,451,286.8h8.8a2.12,2.12,0,0,0,2.11-2.12v-8.82A2.12,2.12,0,0,0,459.76,273.74Z" transform="translate(-168.97 -245.26)"/><path class="cls-7" d="M450.85,259.93h-6.26a1.51,1.51,0,0,0-1.5,1.51v6.28a1.5,1.5,0,0,0,1.5,1.5h6.26a1.5,1.5,0,0,0,1.5-1.5v-6.28A1.51,1.51,0,0,0,450.85,259.93Z" transform="translate(-168.97 -245.26)"/><text class="cls-8" transform="translate(382.02 171.35) scale(1.33 1)">Numedia</text></svg>